<svg id="Capa_1" enable-background="new 0 0 496.885 496.885" height="512" viewBox="0 0 496.885 496.885" width="512" xmlns="http://www.w3.org/2000/svg"><g><path d="m100.593 218.384 15.865 15 15-15c13.157-48.125 57.186-83.5 109.484-83.5l15-15-15-15c-68.963 0-126.554 48.65-140.349 113.5z" fill="#c4f3ff"/><path d="m97.442 248.384 15 15 15-15c0-10.386 1.403-20.443 4.016-30h-30.865c-2.059 9.676-3.151 19.71-3.151 30z" fill="#8ae7ff"/><path d="m240.942 44.884 15-15-15-15c-62.37 0-121.007 24.288-165.109 68.391s-68.391 102.739-68.391 165.109c0 52.256 17.059 101.885 48.527 142.548h21.433v-21.433c-25.104-33.842-39.96-75.742-39.96-121.115 0-112.39 91.11-203.5 203.5-203.5z" fill="#c4f3ff"/><path d="m75.833 413.494h21.213v-21.214c-7.092-7.092-13.656-14.71-19.644-22.781l-21.433 21.433c6.091 7.87 12.712 15.41 19.864 22.562z" fill="#8ae7ff"/><path d="m240.942 97.577v45.077c0 3.953 3.071 7.199 7.014 7.477 7.96.562 15.659 2.071 22.986 4.412l30-30.906-30-30.906c-7.206-1.381-14.583-2.28-22.099-2.652-4.293-.212-7.901 3.199-7.901 7.498z" fill="#9255e3"/><path d="m270.942 92.732v61.811c39.405 12.587 68.03 49.299 68.494 92.769.576 54.007-43.084 98.81-97.088 99.563-52.666.735-96.011-39.871-99.658-91.44-.28-3.957-3.518-7.05-7.485-7.05h-45.072c-4.294 0-7.708 3.6-7.498 7.888 4.11 83.877 73.415 150.615 158.313 150.612 87.453-.003 158.495-71.048 158.494-158.501 0-77.282-55.308-141.63-128.5-155.652z" fill="#ae7df0"/><path d="m240.942 7.508v45.022c0 4.012 3.157 7.338 7.166 7.49 7.74.292 15.359 1.055 22.834 2.251l30-32.914-30-27.664c-7.342-.884-14.779-1.455-22.302-1.689-4.217-.131-7.698 3.284-7.698 7.504z" fill="#61ce5b"/><path d="m270.942 1.692v60.578c89.667 14.34 158.222 91.901 158.499 185.545.304 102.969-83.035 187.717-185.996 189.053-50.425.654-96.363-18.489-130.547-50.145-2.976-2.756-7.579-2.716-10.448.152l-31.84 31.84c-3.006 3.006-2.901 7.891.197 10.801 43.618 40.97 102.025 66.381 166.359 67.34 138.928 2.069 251.977-108.985 252.274-247.928.274-127.33-95.23-232.4-218.498-247.236z" fill="#94e368"/></g></svg>